<svg id="bell" xmlns="http://www.w3.org/2000/svg" viewBox="0 0 40 40" fill="none"><path fill="#46CB48" d="M20.06 40c11.08 0 20.06-8.954 20.06-20S31.14 0 20.06 0 0 8.954 0 20s8.981 20 20.06 20"/><path stroke="#fff" stroke-miterlimit="10" d="M26.426 8.533H13.859a2.446 2.446 0 0 0-2.45 2.443v12.243a2.446 2.446 0 0 0 2.45 2.443h12.567a2.446 2.446 0 0 0 2.45-2.443V10.976a2.446 2.446 0 0 0-2.45-2.443Z"/><path stroke="#fff" stroke-miterlimit="10" d="M15.417 15.708h2.46c.39 0 .707-.307.707-.685v-2.402a.697.697 0 0 0-.707-.684h-2.46a.697.697 0 0 0-.708.684v2.402c0 .378.318.685.708.685Zm6.97 0h2.46c.39 0 .707-.307.707-.685v-2.402a.697.697 0 0 0-.707-.684h-2.46a.697.697 0 0 0-.707.684v2.402c0 .378.317.685.707.685Zm-6.97 6.775h2.46c.39 0 .707-.306.707-.684v-2.402a.697.697 0 0 0-.707-.685h-2.46a.697.697 0 0 0-.708.685v2.402c0 .378.318.684.708.684Z"/><path fill="#693ACB" fill-rule="evenodd" d="M22.459 18.723a.767.767 0 0 1-.78.756.767.767 0 0 1-.778-.756c0-.42.348-.757.779-.757.43 0 .779.337.779.756Zm0 3.014a.767.767 0 0 1-.78.757.767.767 0 0 1-.778-.757c0-.419.348-.756.779-.756.43 0 .779.337.779.756" clip-rule="evenodd"/><path fill="#fff" d="M12.393 32.029c-.84 0-1.527-.695-1.527-1.554v-.44c0-.602.338-1.134.85-1.379.359-3.883 3.086-7.103 6.694-7.95a1.36 1.36 0 0 1-.605-1.145c0-.767.595-1.37 1.343-1.37h2.327c.758 0 1.342.603 1.342 1.37 0 .48-.235.899-.604 1.144 3.874.859 6.601 4.078 6.744 8.033.39.306.646.817.646 1.339v.44c0 .837-.697 1.552-1.527 1.552l-15.704-.04h.02Z"/><path fill="#46CB48" d="M21.475 18.702c.461 0 .82.368.82.848 0 .44-.318.808-.749.849v.705c4.008.623 6.838 3.802 6.91 7.818v.102c.358.143.645.603.645 1.042v.44c0 .552-.461 1.032-1.005 1.032h-.604l-14.095-.04h-1.004c-.533 0-1.005-.44-1.005-1.033v-.44c0-.52.359-.92.82-.99.216-4.027 3.116-7.338 6.868-7.931v-.705a.837.837 0 0 1-.748-.849c0-.48.359-.848.82-.848zm0-1.042h-2.327c-1.046 0-1.866.828-1.866 1.89 0 .317.072.613.205.869-3.341 1.124-5.822 4.22-6.263 7.91a2.06 2.06 0 0 0-.881 1.697v.439c0 1.145.912 2.075 2.04 2.075h1.004l14.095.04h.614c1.107 0 2.04-.95 2.04-2.074v-.44c0-.602-.256-1.175-.666-1.584-.246-3.822-2.737-6.939-6.335-8.073.123-.256.195-.552.195-.859 0-1.063-.82-1.89-1.865-1.89z"/><path stroke="#46CB48" stroke-linecap="round" stroke-miterlimit="10" d="M28.67 28.534H11.973"/></svg>