<svg id="credential" xmlns="http://www.w3.org/2000/svg" viewBox="0 0 40 40" fill="none"><g clip-path="url(#a2)"><path fill="#1D59F9" d="M20 40c11.046 0 20-8.954 20-20S31.046 0 20 0 0 8.954 0 20s8.954 20 20 20"/><path fill="#fff" d="M30.853 12.13c.92 0 1.676.747 1.676 1.677v13.705c0 .92-.746 1.675-1.676 1.675H9.525c-.92 0-1.676-.745-1.676-1.675V13.807c0-.92.746-1.676 1.676-1.676h21.339m0-1.114H9.524a2.787 2.787 0 0 0-2.79 2.79v13.705a2.787 2.787 0 0 0 2.79 2.79h21.34a2.787 2.787 0 0 0 2.79-2.79V13.807a2.787 2.787 0 0 0-2.79-2.79"/><path fill="#fff" d="M24.997 9.79h-2.585v-.633a2.203 2.203 0 0 0-2.003-2.177c-1.329-.123-2.443.859-2.443 2.085v.725h-2.585c-.716 0-1.288.542-1.288 1.217v2.146a.54.54 0 0 0 .531.552h11.13a.54.54 0 0 0 .531-.552v-2.146c0-.675-.572-1.217-1.288-1.217M13.53 18.232a2.85 2.85 0 0 1 2.842 2.841 2.85 2.85 0 0 1-2.841 2.841 2.85 2.85 0 0 1-2.841-2.84 2.85 2.85 0 0 1 2.84-2.842m0-.562a3.39 3.39 0 0 0-3.392 3.393 3.4 3.4 0 0 0 3.393 3.393 3.4 3.4 0 0 0 3.393-3.393 3.4 3.4 0 0 0-3.393-3.393Z"/><path stroke="#fff" stroke-linecap="round" stroke-miterlimit="10" stroke-width=".55" d="M21.645 17.966h8.135m-8.135 3.22h8.135m-8.135 3.076h8.135"/></g><defs><clipPath id="a2"><path fill="#fff" d="M0 0h40v40H0z"/></clipPath></defs></svg>