<svg id="email" xmlns="http://www.w3.org/2000/svg" viewBox="0 0 40 40" fill="none"><g clip-path="url(#a3)"><path fill="#C9B032" d="M20 40c11.046 0 20-8.954 20-20S31.046 0 20 0 0 8.954 0 20s8.954 20 20 20"/><path stroke="#fff" stroke-linecap="round" stroke-miterlimit="10" stroke-width=".87" d="m29.79 27.328-4.271-3.169m-14.308 3.169 4.466-3.169"/><path fill="#fff" d="M28.513 12.264c.777 0 1.41.633 1.41 1.41v12.652c0 .777-.633 1.41-1.41 1.41h-16.3c-.777 0-1.41-.633-1.41-1.41V13.674c0-.777.633-1.41 1.41-1.41zm0-1.86h-16.3a3.273 3.273 0 0 0-3.27 3.27v12.652a3.273 3.273 0 0 0 3.27 3.27h16.3a3.273 3.273 0 0 0 3.27-3.27V13.674a3.273 3.273 0 0 0-3.27-3.27"/><path stroke="#fff" stroke-miterlimit="10" stroke-width=".87" d="m30.158 13.91-8.186 5.773a2.92 2.92 0 0 1-3.229 0l-8.901-5.948"/></g><defs><clipPath id="a3"><path fill="#fff" d="M0 0h40v40H0z"/></clipPath></defs></svg>