<svg id="link" xmlns="http://www.w3.org/2000/svg" viewBox="0 0 40 40" fill="none"><g clip-path="url(#a4)"><path fill="#693ACB" d="M20 40c11.046 0 20-8.954 20-20S31.046 0 20 0 0 8.954 0 20s8.954 20 20 20"/><path stroke="#fff" stroke-linecap="round" stroke-miterlimit="10" stroke-width="2" d="m25.692 21.635 2.872-2.872c2.024-2.023 2.024-5.314 0-7.348-2.023-2.023-5.314-2.023-7.348 0l-2.872 2.872m3.312 11.426-2.872 2.872c-2.024 2.023-5.314 2.023-7.348 0-2.024-2.024-2.024-5.315 0-7.348l2.872-2.872m3.607 3.781 4.538-4.537"/></g><defs><clipPath id="a4"><path fill="#fff" d="M0 0h40v40H0z"/></clipPath></defs></svg>