<svg id="location" xmlns="http://www.w3.org/2000/svg" viewBox="0 0 40 40" fill="none"><g clip-path="url(#a5)"><path fill="#EB4146" d="M20 40c11.046 0 20-8.954 20-20S31.046 0 20 0 0 8.954 0 20s8.954 20 20 20"/><path fill="#fff" d="M19.56 8.533c6.235 0 10.527 5.315 9.198 11.038-.306 1.533-1.022 3.066-1.84 4.394-1.634 2.657-3.78 5.008-6.131 7.052-.358.306-.562.46-.767.46s-.408-.154-.766-.46c-3.066-2.76-5.928-5.723-7.46-9.607-1.636-4.088-.716-7.971 2.35-10.73 1.635-1.431 3.577-2.147 5.417-2.147Zm0-2.043c-2.401 0-4.803.94-6.765 2.646-3.74 3.373-4.824 8.238-2.902 13.03 1.706 4.323 4.854 7.543 7.991 10.363.48.41 1.145.981 2.136.981s1.656-.572 2.096-.95c2.728-2.37 4.925-4.905 6.54-7.532 1.063-1.727 1.768-3.423 2.095-5.038.756-3.28 0-6.643-2.054-9.239-2.156-2.718-5.488-4.272-9.136-4.272v.01Z"/><path stroke="#fff" stroke-miterlimit="10" stroke-width="1.09" d="M20 20.746a3.454 3.454 0 1 0 0-6.909 3.454 3.454 0 0 0 0 6.909Z"/></g><defs><clipPath id="a5"><path fill="#fff" d="M0 0h40v40H0z"/></clipPath></defs></svg>