<svg id="paypal" xmlns="http://www.w3.org/2000/svg" viewBox="0 0 40 40" fill="none"><g clip-path="url(#a6)"><path fill="#1D59F9" d="M20 40c11.046 0 20-8.954 20-20S31.046 0 20 0 0 8.954 0 20s8.954 20 20 20"/><path fill="#fff" d="m20.695 28.227-.96 5.007a1.535 1.535 0 0 1-1.513 1.247h-2.228c-.96 0-1.686-.868-1.513-1.809l3.475-19.029 8.227.092c4.599.051 7.43 5.028 5.13 9.004A8.57 8.57 0 0 1 23.903 27h-1.736a1.52 1.52 0 0 0-1.493 1.227h.02Z"/><path fill="#1D59F9" d="M12.969 28.268c-.296 0-.583-.133-.777-.358a1 1 0 0 1-.225-.828l2.984-17.71c.092-.522.532-.9 1.063-.9l6.878.072a5.44 5.44 0 0 1 4.712 2.77c.97 1.706.97 3.76-.021 5.467a8.06 8.06 0 0 1-6.95 4.006H17.21l-1.277 6.653a1.02 1.02 0 0 1-1.002.828h-1.972z"/><path fill="#fff" d="M16.014 7.95v1.023l6.878.071a4.93 4.93 0 0 1 4.272 2.514 4.91 4.91 0 0 1-.02 4.957 7.55 7.55 0 0 1-6.52 3.75H16.79l-.163.828-1.196 6.245a.506.506 0 0 1-.501.409h-1.972a.5.5 0 0 1-.389-.184.5.5 0 0 1-.112-.41l2.984-17.71a.58.58 0 0 1 .562-.48V7.94m0 0a1.6 1.6 0 0 0-1.574 1.328L11.446 26.98a1.538 1.538 0 0 0 1.513 1.788h1.972c.736 0 1.36-.52 1.502-1.236l1.196-6.244h2.994a8.54 8.54 0 0 0 7.39-4.262c2.299-3.975-.532-8.963-5.131-9.004l-6.868-.071h-.02l.01-.01Z"/><path stroke="#fff" stroke-linecap="round" stroke-miterlimit="10" d="m27.604 14.38-7.962-.072c-.735 0-1.37.52-1.492 1.246l-1.543 8.871"/></g><defs><clipPath id="a6"><path fill="#fff" d="M0 0h40v40H0z"/></clipPath></defs></svg>