<svg id="scan" xmlns="http://www.w3.org/2000/svg" viewBox="0 0 40 40" fill="none"><g clip-path="url(#a7)"><path fill="#D848C7" d="M20 40c11.046 0 20-8.954 20-20S31.046 0 20 0 0 8.954 0 20s8.954 20 20 20"/><path stroke="#fff" stroke-linecap="round" stroke-miterlimit="10" stroke-width="2" d="M25.57 28.901h1.982a1.39 1.39 0 0 0 1.39-1.39v-3.045M14.43 11.099h-1.982a1.39 1.39 0 0 0-1.39 1.39v3.045m3.372 13.367h-1.982a1.39 1.39 0 0 1-1.39-1.39v-3.045M25.57 11.099h1.982c.767 0 1.39.623 1.39 1.39v3.045"/><path stroke="#fff" stroke-linecap="round" stroke-miterlimit="10" d="M23.444 25.508h1.41a.674.674 0 0 0 .675-.674V22.77m-8.973-8.268h-1.41a.674.674 0 0 0-.675.674v2.065m2.085 8.267h-1.41a.674.674 0 0 1-.675-.674V22.77m8.973-8.268h1.41c.379 0 .675.306.675.674v2.065M28.942 20H11.058"/></g><defs><clipPath id="a7"><path fill="#fff" d="M0 0h40v40H0z"/></clipPath></defs></svg>