<svg id="scan-me-v2" xmlns="http://www.w3.org/2000/svg" viewBox="0 0 40 40" fill="none"><path fill="#37AEAE" d="M20.06 40c11.08 0 20.06-8.954 20.06-20S31.14 0 20.06 0 0 8.954 0 20s8.981 20 20.06 20"/><path fill="#FFFFFE" d="M14.197 17.465q-.446 0-.8-.153a1.5 1.5 0 0 1-.584-.44 1.4 1.4 0 0 1-.287-.684l.697-.102a.96.96 0 0 0 .37.552c.184.133.399.194.645.194a1.1 1.1 0 0 0 .41-.072.8.8 0 0 0 .307-.194.44.44 0 0 0 .123-.317c0-.05 0-.112-.03-.153a.4.4 0 0 0-.082-.123.5.5 0 0 0-.144-.102c-.061-.03-.123-.061-.195-.082l-1.045-.306a4 4 0 0 1-.287-.102 1 1 0 0 1-.297-.184.95.95 0 0 1-.226-.297 1 1 0 0 1-.092-.45c0-.255.061-.48.195-.653a1.24 1.24 0 0 1 .533-.399 2 2 0 0 1 .748-.133c.277 0 .523.051.738.143s.4.225.543.399.246.388.308.633l-.728.123a.7.7 0 0 0-.174-.358.75.75 0 0 0-.308-.224 1 1 0 0 0-.39-.082q-.2 0-.368.061a.66.66 0 0 0-.277.184.4.4 0 0 0-.103.276q0 .153.093.245a.6.6 0 0 0 .225.143c.092.041.174.062.267.092l.717.205c.103.03.205.061.328.102a1.3 1.3 0 0 1 .359.184.9.9 0 0 1 .277.317c.072.133.112.296.112.5a1.1 1.1 0 0 1-.133.552 1.15 1.15 0 0 1-.348.389 1.6 1.6 0 0 1-.503.235c-.184.05-.39.081-.594.081m3.895 0c-.4 0-.748-.091-1.035-.265a1.7 1.7 0 0 1-.666-.736 2.45 2.45 0 0 1-.236-1.093c0-.42.082-.777.235-1.094.154-.317.38-.562.667-.736a1.97 1.97 0 0 1 1.035-.266c.461 0 .85.113 1.158.348s.523.542.656.94l-.676.184a1.2 1.2 0 0 0-.4-.613c-.184-.143-.43-.225-.738-.225a1.2 1.2 0 0 0-.676.184 1.08 1.08 0 0 0-.41.511c-.093.215-.134.47-.144.767 0 .296.041.551.133.766s.226.388.41.51q.277.185.677.185c.297 0 .543-.072.738-.225a1.3 1.3 0 0 0 .4-.613l.676.184a1.8 1.8 0 0 1-.656.94c-.307.235-.697.348-1.158.348zm2.04-.092 1.271-4.016h.984l1.271 4.017h-.697l-1.158-3.608h.153l-1.137 3.607h-.697zm.707-.868v-.623h2.122v.623zm3.331.868v-4.016h.687l1.866 2.831v-2.83h.687v4.015h-.687l-1.866-2.83v2.83h-.686Zm-11.1 8.841v-7.706h1.168l2.675 5.457 2.676-5.457h1.168v7.706h-1.21v-4.936l-2.367 4.936h-.513L14.3 21.278v4.936zm9.174 0v-7.706h4.991v1.206h-3.7v1.9h3.055v1.207h-3.055v2.176h3.7v1.206h-4.991z"/><path stroke="#fff" stroke-linecap="round" stroke-miterlimit="10" stroke-width="2.18" d="M26.713 30.66h1.968c1.127 0 2.05-.92 2.05-2.045v-3.219M13.459 9.535H11.49c-1.128 0-2.05.92-2.05 2.044v3.22m4.019 15.861H11.49c-1.128 0-2.05-.92-2.05-2.045v-3.219M26.713 9.535h1.968c1.127 0 2.05.92 2.05 2.044v3.22"/></svg>