<svg id="whatsapp" xmlns="http://www.w3.org/2000/svg" viewBox="0 0 40 40" fill="none"><path fill="#46CB48" d="M3.05 38.963c-.71 0-1.389-.407-1.774-1.059a1.98 1.98 0 0 1 0-2.016l2.767-5.102a1.01 1.01 0 0 0 .02-1.09A18.85 18.85 0 0 1 1.468 17.59C2.533 8.84 9.627 1.906 18.332 1.08A18 18 0 0 1 20.146 1c5.29 0 10.357 2.25 13.925 6.181 3.607 3.982 5.32 9.155 4.813 14.562-.82 8.778-7.742 15.896-16.458 16.945a18.68 18.68 0 0 1-12.08-2.668.99.99 0 0 0-.983-.04l-5.32 2.719c-.335.173-.66.264-.983.264z"/><path fill="#46CB48" d="M20.16 2.037c4.997 0 9.8 2.128 13.175 5.855 3.415 3.768 5.037 8.666 4.55 13.778-.78 8.3-7.327 15.04-15.576 16.029-.72.081-1.44.132-2.149.132a17.7 17.7 0 0 1-9.283-2.648 2 2 0 0 0-1.064-.305c-.314 0-.628.071-.922.224l-5.35 2.729a1.04 1.04 0 0 1-.497.132c-.345 0-.7-.214-.892-.55-.183-.325-.183-.661.03-1.028l2.726-5.02a2.04 2.04 0 0 0 .03-2.17A17.8 17.8 0 0 1 2.487 17.74C3.49 9.47 10.198 2.902 18.438 2.13a19 19 0 0 1 1.723-.082m0-2.037q-.943 0-1.916.092C9.074.957 1.585 8.289.47 17.485a19.88 19.88 0 0 0 2.736 12.76L.409 35.406C-.817 37.597.905 40 3.054 40a2.95 2.95 0 0 0 1.439-.377l5.32-2.719a19.66 19.66 0 0 0 12.73 2.8c9.16-1.1 16.488-8.625 17.349-17.86C41.017 9.99 31.744 0 20.16 0v.01Z"/><path stroke="#fff" stroke-miterlimit="10" stroke-width="2" d="M30.2 24.96c-.588-.296-2.604-1.335-3.09-1.528-.487-.194-1.521-.601-2.372.55-.466.55-.406.509-.73.865-.446.54-1.023 1.324-2.26.723-.486-.295-1.885-.814-4.023-2.678-1.662-1.466-2.453-3.055-2.848-3.646-.669-1.12.03-1.568.324-1.863s.173-.183.568-.57c.8-.917.953-1.64.355-2.79-.102-.296-.73-1.548-1.227-2.628-.84-1.527-1.459-1.65-1.854-1.65h-.476c-.082 0-.244.062-.436.153a5.78 5.78 0 0 0-3.304 5.112v.133c0 2.84 1.956 5.386 2.24 5.784.283.397 3.901 5.977 9.465 8.431 1.368.591 2.341.886 3.223 1.182 1.368.397 2.533.397 3.516.193 1.075-.193 3.314-1.375 3.8-2.648.072-.173.122-.346.173-.509a2.32 2.32 0 0 0-1.034-2.617h-.01Z" clip-rule="evenodd"/></svg>