<svg id="wifi" xmlns="http://www.w3.org/2000/svg" viewBox="0 0 40 40" fill="none"><g clip-path="url(#a8)"><path fill="#37AEAE" d="M20 40c11.046 0 20-8.954 20-20S31.046 0 20 0 0 8.954 0 20s8.954 20 20 20"/><path fill="#fff" d="M19.785 25.682a1.758 1.758 0 1 1 0 3.516 1.758 1.758 0 0 1 0-3.516m0-1.022a2.783 2.783 0 0 0-2.78 2.78 2.783 2.783 0 0 0 2.78 2.78 2.783 2.783 0 0 0 2.78-2.78 2.783 2.783 0 0 0-2.78-2.78"/><path stroke="#fff" stroke-linecap="round" stroke-miterlimit="10" stroke-width="2" d="M9.239 16.893c2.606-3.035 6.428-4.987 10.771-4.987 4.333 0 8.166 1.952 10.772 4.987"/><path stroke="#fff" stroke-linecap="round" stroke-miterlimit="10" stroke-width="2" d="M12.345 20c1.738-2.31 4.477-3.76 7.665-3.76 3.179 0 5.856 1.512 7.665 3.76M14.87 23.403c1.083-1.666 3.035-2.749 5.059-2.749s3.975 1.083 5.058 2.75"/></g><defs><clipPath id="a8"><path fill="#fff" d="M0 0h40v40H0z"/></clipPath></defs></svg>